<svg xmlns="http://www.w3.org/2000/svg" xmlns:xlink="http://www.w3.org/1999/xlink" id="Layer_1" x="0px" y="0px" viewBox="0 0 700 206.1" style="enable-background:new 0 0 700 206.1;" xml:space="preserve"><style type="text/css">	.st0{stroke:#231F20;stroke-width:0.3046;}</style><g>	<path d="M694.2,49.55c0,0-10.75,4.59-14.92,4.8c-4.18,0.22-18.06,4.66-22.91,6.27c-4.85,1.61-16.69,7.94-22.19,18.03  c-5.5,10.09-9.79,17.91-11.19,25.32c-1.4,7.41,0.57,19.75-1.9,24.67c-1.01,2.02-2.37,5.29-3.62,8.76c-0.13-1.2-0.25-2.29-0.34-3.22  c-1.03-10.79,0.47-29.63,0.47-39.41c0-9.79,3.95-9.46,6.21-10.76c5.91-3.41,8.98-12.35,8.22-25.69  c-0.74-12.93-9.09-32.71-16.27-34.81c0,0-1.01-0.3-1.93-0.3c-0.93,0-2,0.3-2,0.3c-7.18,2.1-15.53,21.87-16.27,34.81  c-0.76,13.34,2.32,22.28,8.22,25.69c2.26,1.31,6.21,0.97,6.21,10.76c0,9.23,1.33,26.51,0.62,37.5c-0.28-0.89-0.63-1.72-1.06-2.41  c-2.91-4.62-4.11-8.05-8.73-9.76c0,0,2.57-20.55-10.96-36.65c-13.53-16.1-21.58-16.78-22.95-16.78h-9.25  c-1.03,0-5.99-0.34-5.99-0.34s1.88,4.28,1.88,6.34c0,2.05-1.37,13.36-0.17,16.95c1.2,3.6,3.42,7.36,3.42,7.36s5.31,6.85,6.51,8.39  c1.2,1.54,10.27,8.22,16.1,11.13c5.82,2.91,13.01,4.62,16.44,4.62c3.42,0,6.68,1.37,8.56,3.6c1.88,2.23,5.48,7.02,5.65,12.5  c0.01,0.21,0.01,0.41,0.02,0.61c-1.45,13.04-5.03,39.9-4.41,48.41c0.69,9.42,3.68,14.56,8.13,14.56s7.45-5.14,8.13-14.56  c0.59-8.13-2.64-32.94-4.2-46.53c1.32-3.91,3.55-8.82,7.87-14.72c0,0,3.25-2.61,11.31-3.23c8.06-0.62,18.88-5.97,27.39-10.54  c8.52-4.57,17.54-12.86,22.1-22.74c4.56-9.87,4.85-21,5.78-25.06c0.93-4.07,1.84-11.98,2.84-13.58  C696.02,48.26,694.2,49.55,694.2,49.55z"></path>	<g>		<g>			<path d="M46.14,67.48H24.55v48.93H4.93V6.86h19.41v42.19h21.59V6.86h19.61v109.55H46.14V67.48z"></path>			<path d="M79.81,6.86h51.11l-2.58,18.62H99.23v23.57h27.34v18.42H99.23v29.91h33.28v19.02H79.81V6.86z"></path>			<path d="M168.36,67.28h-4.75v49.13H144V6.86h33.08c15.06,0,24.17,8.72,24.17,23.38V44.3c0,8.91-5.35,19.81-14.26,21.2    l15.85,50.91h-20.21L168.36,67.28z M177.28,25.48h-14.06v23.57h14.06c3.37,0,4.75-1.39,4.75-5.15V30.04    C182.03,26.67,180.84,25.48,177.28,25.48z"></path>			<path d="M214.52,116.41V6.86h34.27c15.25,0,24.76,8.72,24.56,23.38l-0.4,13.67c0,3.96-1.19,6.34-2.97,9.51    c-0.79,1.58-2.77,3.37-6.93,4.56c3.76,1.19,6.14,3.17,7.13,4.75c1.78,3.17,3.17,5.74,3.17,9.51v20.8    c0,14.66-9.31,23.38-24.37,23.38H214.52z M249.38,25.48h-15.45v23.57h15.45c3.57,0,4.36-0.99,4.36-4.56V29.84    C253.74,26.47,252.95,25.48,249.38,25.48z M249.38,67.28h-15.45v30.11h15.45c3.57,0,4.36-0.99,4.36-4.36V71.64    C253.74,68.27,252.95,67.28,249.38,67.28z"></path>			<path d="M325.05,99.57h-19.81l-2.97,17.63l-19.61-0.79l20.4-109.75l12.08,0.99l12.08-0.99l20.4,109.75l-19.61,0.79L325.05,99.57z     M308.02,81.15h14.26l-7.13-46.95L308.02,81.15z"></path>			<path d="M382.1,67.28h-4.75v49.13h-19.61V6.86h33.08c15.06,0,24.17,8.72,24.17,23.38V44.3c0,8.91-5.35,19.81-14.26,21.2    l15.85,50.91h-20.21L382.1,67.28z M391.02,25.48h-14.06v23.57h14.06c3.37,0,4.75-1.39,4.75-5.15V30.04    C395.77,26.67,394.58,25.48,391.02,25.48z"></path>			<path d="M427.86,6.86h19.81v109.55h-19.81V6.86z"></path>			<path d="M461.14,91.25V31.62c0-14.66,14.86-26.35,29.71-26.35c15.06,0,29.91,11.69,29.91,26.35v59.63    c0,14.66-14.86,26.74-29.71,26.74C476,118,461.14,105.91,461.14,91.25z M491.06,23.9c-4.36,0-10.5,3.76-10.5,7.73v59.63    c0,3.96,6.14,7.73,10.3,7.73c4.36,0,10.5-3.76,10.5-7.73V31.62C501.36,27.66,495.22,23.9,491.06,23.9z"></path>		</g>		<g>			<path class="st0" d="M545.81,35.85c-8.64,0-15.6-7.02-15.6-15.6c0-8.64,6.96-15.66,15.6-15.66c8.64,0,15.6,7.02,15.6,15.66    C561.41,28.84,554.45,35.85,545.81,35.85z M533.82,20.25c0,6.59,5.35,12.31,11.99,12.31c6.64,0,11.99-5.72,11.99-12.31    c0-6.64-5.35-12.42-11.99-12.42C539.17,7.83,533.82,13.07,533.82,20.25z M551.64,14.96v2.38c0,1.78-1.35,3.46-2.65,3.67    l2.38,8.91h-3.73l-1.94-8.64h-1.19v8.64H541V11.07h6.32C549.75,11.07,551.64,12.48,551.64,14.96z M546.89,18.42    c0.86,0,1.4-0.49,1.4-1.35v-2.05c0-0.81-0.54-1.19-1.4-1.19h-2.43v4.59H546.89z"></path>		</g>	</g></g></svg>